<?xml version="1.0" standalone="no"?>
<!DOCTYPE svg PUBLIC "-//W3C//DTD SVG 1.1//EN"
"http://www.w3.org/Graphics/SVG/1.1/DTD/svg11.dtd">

<svg width="562" height="388" view_box="0 0 562 388"
xmlns="http://www.w3.org/2000/svg"
xmlns:link="http://www.w3.org/1999/xlink">\n\n<desc>Généré par Mocodo 2.3.7 le Fri, 07 Jan 2022 06:02:39</desc>

<rect id="frame" x="0" y="0" width="562" height="388" fill="#f5f5f5" stroke="none" stroke-width="0"/>

<!-- Association valide -->
<line x1="270" y1="135" x2="270" y2="34" stroke="#bf812d" stroke-width="2"/>
<text x="275.0" y="76" fill="#01665e" font-family="Verdana" font-size="12">1,1</text>
<line x1="503" y1="135" x2="270" y2="34" stroke="#bf812d" stroke-width="2"/>
<text x="431" y="128.664519426" fill="#01665e" font-family="Verdana" font-size="12">0,1</text>
<g id="association-valide">
	<path d="M 282 9 a 14 14 90 0 1 14 14 V 34 h -52 V 23 a 14 14 90 0 1 14 -14" fill="#dfc27d" stroke="#dfc27d" stroke-width="0"/>
	<path d="M 296 34.0 v 11 a 14 14 90 0 1 -14 14 H 258 a 14 14 90 0 1 -14 -14 V 34.0 H 52" fill="#f6e8c3" stroke="#f6e8c3" stroke-width="0"/>
	<rect x="244" y="9" width="52" height="50" fill="none" rx="14" stroke="#bf812d" stroke-width="2"/>
	<line x1="244" y1="34" x2="296" y2="34" stroke="#bf812d" stroke-width="1"/>
	<text x="251" y="26.7" fill="#000000" font-family="Verdana" font-size="12">valide</text>
</g>

<!-- Association appartient -->
<line x1="270" y1="328" x2="382" y2="328" stroke="#bf812d" stroke-width="2"/>
<text x="314" y="345.0" fill="#01665e" font-family="Verdana" font-size="12">0,N</text>
<line x1="503" y1="328" x2="382" y2="328" stroke="#bf812d" stroke-width="2"/>
<text x="426" y="345.0" fill="#01665e" font-family="Verdana" font-size="12">0,N</text>
<g id="association-appartient">
	<path d="M 407 303 a 14 14 90 0 1 14 14 V 328 h -78 V 317 a 14 14 90 0 1 14 -14" fill="#dfc27d" stroke="#dfc27d" stroke-width="0"/>
	<path d="M 421 328.0 v 11 a 14 14 90 0 1 -14 14 H 357 a 14 14 90 0 1 -14 -14 V 328.0 H 78" fill="#f6e8c3" stroke="#f6e8c3" stroke-width="0"/>
	<rect x="343" y="303" width="78" height="50" fill="none" rx="14" stroke="#bf812d" stroke-width="2"/>
	<line x1="343" y1="328" x2="421" y2="328" stroke="#bf812d" stroke-width="1"/>
	<text x="350" y="320.7" fill="#000000" font-family="Verdana" font-size="12">appartient</text>
</g>

<!-- Association compose -->
<line x1="270" y1="135" x2="270" y2="236" stroke="#bf812d" stroke-width="2"/>
<text x="275.0" y="203" fill="#01665e" font-family="Verdana" font-size="12">1,1</text>
<line x1="270" y1="328" x2="270" y2="236" stroke="#bf812d" stroke-width="2"/>
<text x="275.0" y="278" fill="#01665e" font-family="Verdana" font-size="12">0,N</text>
<g id="association-compose">
	<path d="M 290 211 a 14 14 90 0 1 14 14 V 236 h -68 V 225 a 14 14 90 0 1 14 -14" fill="#dfc27d" stroke="#dfc27d" stroke-width="0"/>
	<path d="M 304 236.0 v 11 a 14 14 90 0 1 -14 14 H 250 a 14 14 90 0 1 -14 -14 V 236.0 H 68" fill="#f6e8c3" stroke="#f6e8c3" stroke-width="0"/>
	<rect x="236" y="211" width="68" height="50" fill="none" rx="14" stroke="#bf812d" stroke-width="2"/>
	<line x1="236" y1="236" x2="304" y2="236" stroke="#bf812d" stroke-width="1"/>
	<text x="243" y="228.7" fill="#000000" font-family="Verdana" font-size="12">compose</text>
</g>

<!-- Association créé -->
<line x1="61" y1="328" x2="166" y2="328" stroke="#bf812d" stroke-width="2"/>
<text x="118" y="345.0" fill="#01665e" font-family="Verdana" font-size="12">0,N</text>
<line x1="270" y1="328" x2="166" y2="328" stroke="#bf812d" stroke-width="2"/>
<text x="205" y="345.0" fill="#01665e" font-family="Verdana" font-size="12">1,1</text>
<g id="association-créé">
	<path d="M 173 303 a 14 14 90 0 1 14 14 V 328 h -42 V 317 a 14 14 90 0 1 14 -14" fill="#dfc27d" stroke="#dfc27d" stroke-width="0"/>
	<path d="M 187 328.0 v 11 a 14 14 90 0 1 -14 14 H 159 a 14 14 90 0 1 -14 -14 V 328.0 H 42" fill="#f6e8c3" stroke="#f6e8c3" stroke-width="0"/>
	<rect x="145" y="303" width="42" height="50" fill="none" rx="14" stroke="#bf812d" stroke-width="2"/>
	<line x1="145" y1="328" x2="187" y2="328" stroke="#bf812d" stroke-width="1"/>
	<text x="152" y="320.7" fill="#000000" font-family="Verdana" font-size="12">créé</text>
</g>

<!-- Association défini -->
<line x1="61" y1="135" x2="166" y2="135" stroke="#bf812d" stroke-width="2"/>
<text x="108" y="152.0" fill="#01665e" font-family="Verdana" font-size="12">0,N</text>
<line x1="270" y1="135" x2="166" y2="135" stroke="#bf812d" stroke-width="2"/>
<text x="196" y="152.0" fill="#01665e" font-family="Verdana" font-size="12">1,1</text>
<g id="association-défini">
	<path d="M 176 110 a 14 14 90 0 1 14 14 V 135 h -48 V 124 a 14 14 90 0 1 14 -14" fill="#dfc27d" stroke="#dfc27d" stroke-width="0"/>
	<path d="M 190 135.0 v 11 a 14 14 90 0 1 -14 14 H 156 a 14 14 90 0 1 -14 -14 V 135.0 H 48" fill="#f6e8c3" stroke="#f6e8c3" stroke-width="0"/>
	<rect x="142" y="110" width="48" height="50" fill="none" rx="14" stroke="#bf812d" stroke-width="2"/>
	<line x1="142" y1="135" x2="190" y2="135" stroke="#bf812d" stroke-width="1"/>
	<text x="149" y="127.7" fill="#000000" font-family="Verdana" font-size="12">défini</text>
</g>

<!-- Association possède -->
<line x1="270" y1="135" x2="382" y2="135" stroke="#bf812d" stroke-width="2"/>
<text x="323" y="152.0" fill="#01665e" font-family="Verdana" font-size="12">0,N</text>
<line x1="503" y1="135" x2="382" y2="135" stroke="#bf812d" stroke-width="2"/>
<text x="431" y="152.0" fill="#01665e" font-family="Verdana" font-size="12">1,1</text>
<g id="association-possède">
	<path d="M 400 110 a 14 14 90 0 1 14 14 V 135 h -64 V 124 a 14 14 90 0 1 14 -14" fill="#dfc27d" stroke="#dfc27d" stroke-width="0"/>
	<path d="M 414 135.0 v 11 a 14 14 90 0 1 -14 14 H 364 a 14 14 90 0 1 -14 -14 V 135.0 H 64" fill="#f6e8c3" stroke="#f6e8c3" stroke-width="0"/>
	<rect x="350" y="110" width="64" height="50" fill="none" rx="14" stroke="#bf812d" stroke-width="2"/>
	<line x1="350" y1="135" x2="414" y2="135" stroke="#bf812d" stroke-width="1"/>
	<text x="357" y="127.7" fill="#000000" font-family="Verdana" font-size="12">possède</text>
</g>

<!-- Entity utilisateur -->
<g id="entity-utilisateur">
	<g id="frame-utilisateur">
		<rect x="9" y="277" width="104" height="25" fill="#80cdc1" stroke="#80cdc1" stroke-width="0"/>
		<rect x="9" y="302.0" width="104" height="77" fill="#c7eae5" stroke="#c7eae5" stroke-width="0"/>
		<rect x="9" y="277" width="104" height="102" fill="none" stroke="#35978f" stroke-width="2"/>
		<line x1="9" y1="302" x2="113" y2="302" stroke="#35978f" stroke-width="1"/>
	</g>
	<text x="30" y="294.7" fill="#000000" font-family="Verdana" font-size="12">utilisateur</text>
	<text x="14" y="319.7" fill="#000000" font-family="Verdana" font-size="12">code utilisateur</text>
	<line x1="14" y1="322" x2="108" y2="322" stroke="#000000" stroke-width="1"/>
	<text x="14" y="336.8" fill="#000000" font-family="Verdana" font-size="12">prénom</text>
	<text x="14" y="353.8" fill="#000000" font-family="Verdana" font-size="12">nom email</text>
	<text x="14" y="370.8" fill="#000000" font-family="Verdana" font-size="12">mot de passe</text>
</g>

<!-- Entity niveau -->
<g id="entity-niveau">
	<g id="frame-niveau">
		<rect x="19" y="101" width="84" height="25" fill="#80cdc1" stroke="#80cdc1" stroke-width="0"/>
		<rect x="19" y="126.0" width="84" height="43" fill="#c7eae5" stroke="#c7eae5" stroke-width="0"/>
		<rect x="19" y="101" width="84" height="68" fill="none" stroke="#35978f" stroke-width="2"/>
		<line x1="19" y1="126" x2="103" y2="126" stroke="#35978f" stroke-width="1"/>
	</g>
	<text x="40" y="118.7" fill="#000000" font-family="Verdana" font-size="12">niveau</text>
	<text x="24" y="143.8" fill="#000000" font-family="Verdana" font-size="12">code niveau</text>
	<line x1="24" y1="146" x2="97" y2="146" stroke="#000000" stroke-width="1"/>
	<text x="24" y="160.8" fill="#000000" font-family="Verdana" font-size="12">nom</text>
</g>

<!-- Entity question -->
<g id="entity-question">
	<g id="frame-question">
		<rect x="222" y="84" width="96" height="25" fill="#80cdc1" stroke="#80cdc1" stroke-width="0"/>
		<rect x="222" y="109.0" width="96" height="77" fill="#c7eae5" stroke="#c7eae5" stroke-width="0"/>
		<rect x="222" y="84" width="96" height="102" fill="none" stroke="#35978f" stroke-width="2"/>
		<line x1="222" y1="109" x2="318" y2="109" stroke="#35978f" stroke-width="1"/>
	</g>
	<text x="244" y="101.7" fill="#000000" font-family="Verdana" font-size="12">question</text>
	<text x="227" y="126.7" fill="#000000" font-family="Verdana" font-size="12">code question</text>
	<line x1="227" y1="129" x2="312" y2="129" stroke="#000000" stroke-width="1"/>
	<text x="227" y="143.8" fill="#000000" font-family="Verdana" font-size="12">description</text>
	<text x="227" y="160.8" fill="#000000" font-family="Verdana" font-size="12">anecdote</text>
	<text x="227" y="177.8" fill="#000000" font-family="Verdana" font-size="12">wiki</text>
</g>

<!-- Entity catégorie -->
<g id="entity-catégorie">
	<g id="frame-catégorie">
		<rect x="453" y="294" width="100" height="25" fill="#80cdc1" stroke="#80cdc1" stroke-width="0"/>
		<rect x="453" y="319.0" width="100" height="43" fill="#c7eae5" stroke="#c7eae5" stroke-width="0"/>
		<rect x="453" y="294" width="100" height="68" fill="none" stroke="#35978f" stroke-width="2"/>
		<line x1="453" y1="319" x2="553" y2="319" stroke="#35978f" stroke-width="1"/>
	</g>
	<text x="474" y="311.7" fill="#000000" font-family="Verdana" font-size="12">catégorie</text>
	<text x="458" y="336.8" fill="#000000" font-family="Verdana" font-size="12">code catégorie</text>
	<line x1="458" y1="339" x2="547" y2="339" stroke="#000000" stroke-width="1"/>
	<text x="458" y="353.8" fill="#000000" font-family="Verdana" font-size="12">nom</text>
</g>

<!-- Entity réponse -->
<g id="entity-réponse">
	<g id="frame-réponse">
		<rect x="457" y="101" width="92" height="25" fill="#80cdc1" stroke="#80cdc1" stroke-width="0"/>
		<rect x="457" y="126.0" width="92" height="43" fill="#c7eae5" stroke="#c7eae5" stroke-width="0"/>
		<rect x="457" y="101" width="92" height="68" fill="none" stroke="#35978f" stroke-width="2"/>
		<line x1="457" y1="126" x2="549" y2="126" stroke="#35978f" stroke-width="1"/>
	</g>
	<text x="478" y="118.7" fill="#000000" font-family="Verdana" font-size="12">réponse</text>
	<text x="462" y="143.8" fill="#000000" font-family="Verdana" font-size="12">code réponse</text>
	<line x1="462" y1="146" x2="543" y2="146" stroke="#000000" stroke-width="1"/>
	<text x="462" y="160.8" fill="#000000" font-family="Verdana" font-size="12">description</text>
</g>

<!-- Entity quizz -->
<g id="entity-quizz">
	<g id="frame-quizz">
		<rect x="231" y="286" width="78" height="25" fill="#80cdc1" stroke="#80cdc1" stroke-width="0"/>
		<rect x="231" y="311.0" width="78" height="59" fill="#c7eae5" stroke="#c7eae5" stroke-width="0"/>
		<rect x="231" y="286" width="78" height="84" fill="none" stroke="#35978f" stroke-width="2"/>
		<line x1="231" y1="311" x2="309" y2="311" stroke="#35978f" stroke-width="1"/>
	</g>
	<text x="254" y="303.7" fill="#000000" font-family="Verdana" font-size="12">quizz</text>
	<text x="236" y="328.8" fill="#000000" font-family="Verdana" font-size="12">code quizz</text>
	<line x1="236" y1="331" x2="300" y2="331" stroke="#000000" stroke-width="1"/>
	<text x="236" y="345.8" fill="#000000" font-family="Verdana" font-size="12">titre</text>
	<text x="236" y="362.8" fill="#000000" font-family="Verdana" font-size="12">description</text>
</g>
</svg>